<svg width="24" height="25" viewBox="0 0 24 25" fill="none" xmlns="http://www.w3.org/2000/svg">
<path d="M19.546 11.796C19.4414 11.9009 19.3173 11.9841 19.1805 12.0409C19.0438 12.0976 18.8971 12.1269 18.7491 12.1269C18.601 12.1269 18.4544 12.0976 18.3177 12.0409C18.1809 11.9841 18.0567 11.9009 17.9522 11.796L13.125 6.96879V20.75C13.125 21.0484 13.0065 21.3346 12.7955 21.5455C12.5845 21.7565 12.2984 21.875 12 21.875C11.7017 21.875 11.4155 21.7565 11.2045 21.5455C10.9935 21.3346 10.875 21.0484 10.875 20.75V6.96879L6.04596 11.796C5.83461 12.0073 5.54797 12.1261 5.24908 12.1261C4.9502 12.1261 4.66355 12.0073 4.45221 11.796C4.24086 11.5846 4.12213 11.298 4.12213 10.9991C4.12213 10.7002 4.24086 10.4136 4.45221 10.2022L11.2022 3.45223C11.3067 3.34735 11.4309 3.26413 11.5677 3.20735C11.7044 3.15057 11.851 3.12134 11.9991 3.12134C12.1471 3.12134 12.2938 3.15057 12.4305 3.20735C12.5673 3.26413 12.6914 3.34735 12.796 3.45223L19.546 10.2022C19.6508 10.3067 19.7341 10.4309 19.7908 10.5677C19.8476 10.7044 19.8768 10.851 19.8768 10.9991C19.8768 11.1472 19.8476 11.2938 19.7908 11.4305C19.7341 11.5673 19.6508 11.6915 19.546 11.796Z" fill="#00C920"/>
</svg>
