<svg width="100" height="31" viewBox="0 0 100 31" fill="none" xmlns="http://www.w3.org/2000/svg">
<path fill-rule="evenodd" clip-rule="evenodd" d="M25.3798 18.7517H20.693V0.443848H25.3798V18.7517Z" fill="#0059A3"/>
<path fill-rule="evenodd" clip-rule="evenodd" d="M14.2921 0.443848L9.75159 12.5231L5.21088 0.443848L0 0.460756L7.38967 18.7517H12.1133L19.503 0.460756L14.2921 0.443848Z" fill="#0059A3"/>
<path fill-rule="evenodd" clip-rule="evenodd" d="M34.6357 14.2002L43.16 3.85136V0.443848H27.9025V4.99515H36.1457L28.5625 14.2014L27.6294 15.3151V18.7517H43.2971V14.2002H34.6357Z" fill="#0059A3"/>
<path fill-rule="evenodd" clip-rule="evenodd" d="M52.3575 14.2002L60.882 3.85136V0.443848H45.6246V4.99515H53.8677L46.2848 14.2014L45.3512 15.3151V18.7517H59.1601L61.0193 16.4776V14.2002H52.3575Z" fill="#0059A3"/>
<path fill-rule="evenodd" clip-rule="evenodd" d="M78.1217 6.63513L76.8359 5.54736L73.2748 9.75604L70.4603 7.37436L70.459 7.37579L70.4572 7.37436L65.8839 12.78L67.1697 13.8675L70.6566 9.74646L73.473 12.1294L73.5484 12.0408L78.1217 6.63513Z" fill="#E31E24"/>
<path fill-rule="evenodd" clip-rule="evenodd" d="M72.0748 14.6178C69.2941 14.6178 67.0402 12.3637 67.0402 9.58293C67.0402 6.8024 69.2941 4.54845 72.0748 4.54845C74.8554 4.54824 77.1095 6.8024 77.1095 9.58293C77.1095 12.3637 74.8554 14.6178 72.0748 14.6178ZM72.0748 0C66.6317 0 62.2194 4.29036 62.2194 9.58293C62.2194 14.8757 66.6317 19.1663 72.0748 19.1663C77.5177 19.1663 81.9301 14.8757 81.9301 9.58293C81.9301 4.29036 77.5177 0 72.0748 0Z" fill="#0059A3"/>
<path fill-rule="evenodd" clip-rule="evenodd" d="M64.6799 23.184L60.8599 20.0107L66.6493 13.0413L70.4693 16.2143L64.6799 23.184Z" fill="#0059A3"/>
<path fill-rule="evenodd" clip-rule="evenodd" d="M88.5342 4.6912H92.7865C92.7873 4.6912 92.7888 4.6912 92.7896 4.6912C94.1324 4.6912 95.2207 5.77958 95.2207 7.12258C95.2207 8.46416 94.134 9.55192 92.7924 9.55355H88.5342V4.6912ZM94.3314 18.737H100L96.0885 13.2118C98.2724 12.1564 99.7022 9.82794 99.7022 7.12258C99.7022 3.43457 97.3407 0.44403 93.4455 0.429771V0.428955H83.8475H83.8473V18.737H88.5342V13.8158H90.8475L94.3314 18.737Z" fill="#0059A3"/>
<path d="M28.6984 30.3093H27.9081V24.7474H28.6984V30.3093ZM34.84 30.3093H34.0267L30.8815 25.9224V30.3093H30.1282V24.7474H30.9495L34.0808 29.1415V24.7474H34.84V30.3093ZM40.441 25.4091H38.4563V30.3093H37.6631V25.4091H35.6921V24.7474H40.441V25.4091ZM45.7647 30.3093H41.29V24.7474H45.6285V25.4091H42.0832V27.099H45.3975V27.7606H42.0832V29.6477H45.7647V30.3093ZM50.5894 30.3093H46.8771V24.7474H47.6704V29.6477H50.5894V30.3093ZM55.247 30.3093H51.5346V24.7474H52.3278V29.6477H55.247V30.3093ZM60.6669 30.3093H56.1922V24.7474H60.5306V25.4091H56.9854V27.099H60.2994V27.7606H56.9854V29.6477H60.6669V30.3093ZM66.7262 26.4331H65.9147C65.902 26.2563 65.8525 26.0966 65.7643 25.9542C65.6759 25.8132 65.5612 25.6924 65.4187 25.5916C65.2779 25.4924 65.1104 25.4162 64.92 25.363C64.7291 25.3082 64.5232 25.2824 64.303 25.2824C63.9995 25.2824 63.7269 25.3312 63.4835 25.4292C63.2403 25.5284 63.0325 25.6722 62.8608 25.8621C62.6903 26.0519 62.5585 26.285 62.467 26.5626C62.3743 26.8415 62.3277 27.1609 62.3277 27.5233C62.3277 27.8828 62.3743 28.2036 62.467 28.4827C62.5585 28.7618 62.6903 28.9977 62.8591 29.1889C63.028 29.3788 63.234 29.5255 63.4757 29.6247C63.719 29.7239 63.987 29.7742 64.2846 29.7742C64.5171 29.7742 64.7291 29.7469 64.9214 29.6937C65.1149 29.6406 65.2809 29.5613 65.4217 29.4564C65.5629 29.3499 65.6743 29.2219 65.7594 29.071C65.8448 28.9184 65.8959 28.743 65.9147 28.543H66.7262C66.6985 28.838 66.6195 29.1011 66.4877 29.3313C66.3561 29.5613 66.1842 29.7571 65.9703 29.918C65.758 30.0777 65.5087 30.1985 65.2233 30.282C64.94 30.3653 64.6315 30.4056 64.2985 30.4056C63.8707 30.4056 63.4851 30.3394 63.1411 30.2044C62.7956 30.0691 62.5012 29.8764 62.2594 29.6247C62.0179 29.3729 61.8319 29.0696 61.7017 28.7143C61.5715 28.3591 61.5065 27.962 61.5065 27.5233C61.5065 27.0861 61.5715 26.6891 61.7031 26.3339C61.8349 25.9786 62.0225 25.6751 62.2641 25.4247C62.5059 25.176 62.8001 24.9819 63.1457 24.8466C63.4896 24.71 63.8738 24.6423 64.2985 24.6423C64.6163 24.6423 64.9151 24.6841 65.197 24.7705C65.4775 24.8552 65.7271 24.976 65.9456 25.1328C66.1638 25.2883 66.3406 25.4767 66.4785 25.6967C66.6164 25.9181 66.6985 26.1628 66.7262 26.4331ZM72.0919 25.4091H70.107V30.3093H69.3138V25.4091H67.3428V24.7474H72.0919V25.4091Z" fill="#5B758C"/>
</svg>
