<svg width="159" height="34" viewBox="0 0 159 34" fill="none" xmlns="http://www.w3.org/2000/svg">
<path fill-rule="evenodd" clip-rule="evenodd" d="M14.9424 1.82774C18.0172 2.83882 20.6787 4.59256 22.2726 7.92082C23.7654 11.0377 23.4887 14.0759 22.0369 16.4987C21.7078 17.0471 21.4299 17.3563 20.9283 17.8737C20.5092 18.3064 20.8291 18.6128 21.3549 18.5003C21.8909 18.3854 22.1934 18.2338 22.779 17.8701C26.495 15.5629 27.1402 10.1366 25.2219 6.3668C23.1083 2.21471 19.4803 0.151276 15.2371 0.54823C14.0033 0.663465 13.879 1.24879 14.0784 1.44297C14.2693 1.62856 14.6826 1.74214 14.9424 1.82774Z" fill="white"/>
<path fill-rule="evenodd" clip-rule="evenodd" d="M2.54576 9.50335C2.81003 9.46983 3.15656 9.21775 3.38509 9.06789C6.09285 7.29421 9.12335 6.30667 12.7195 7.13548C16.0871 7.91166 18.2901 10.0222 19.279 12.6682C19.5028 13.2668 19.5713 13.677 19.6629 14.3917C19.74 14.9895 20.1787 14.9305 20.4186 14.4488C20.663 13.9582 20.7333 13.6272 20.8139 12.9427C21.3267 8.59892 17.4865 4.7111 13.343 3.86096C8.77902 2.9244 4.90366 4.47454 2.56876 8.03936C1.88981 9.07621 2.26959 9.53825 2.54576 9.50335Z" fill="white"/>
<path fill-rule="evenodd" clip-rule="evenodd" d="M6.14936 14.115C8.85573 11.9662 11.8793 11.5596 14.5646 12.436C15.1721 12.6343 15.5355 12.8366 16.1516 13.2102C16.6671 13.523 16.8945 13.1429 16.6674 12.6551C16.4364 12.1582 16.2211 11.8969 15.7363 11.4069C12.6599 8.29777 7.22582 8.87645 3.9779 11.5859C0.400333 14.5704 -0.804108 18.5668 0.527195 22.615C0.914453 23.7923 1.51281 23.7831 1.65768 23.5454C1.79619 23.318 1.81501 22.89 1.8405 22.6177C2.14188 19.395 3.25905 16.4097 6.14936 14.115Z" fill="white"/>
<path fill-rule="evenodd" clip-rule="evenodd" d="M11.4712 32.2735C9.13937 30.0286 7.50198 27.2937 7.50974 23.6034C7.51722 20.1477 9.08424 17.5302 11.4438 15.977C11.9776 15.6258 12.3624 15.4679 13.0385 15.2192C13.6045 15.0111 13.4491 14.5964 12.9261 14.4696C12.3934 14.3405 12.0552 14.346 11.3698 14.4197C7.02081 14.8865 4.08536 19.4956 4.17871 23.7244C4.28148 28.3823 6.65517 31.8153 10.6502 33.2984C11.812 33.7297 12.1782 33.2563 12.0826 32.9948C11.9912 32.7449 11.6682 32.4632 11.4712 32.2735Z" fill="white"/>
<path fill-rule="evenodd" clip-rule="evenodd" d="M25.9704 30.7355C25.7178 30.651 25.2962 30.728 25.025 30.7637C21.8161 31.1873 18.6571 30.7624 15.7765 28.4554C13.0793 26.2953 12.01 23.438 12.2668 20.6249C12.3247 19.9884 12.4413 19.5892 12.6684 18.9053C12.8585 18.3333 12.4374 18.1961 12.0122 18.5261C11.5793 18.8621 11.3726 19.1299 11.0028 19.7117C8.65626 23.4028 10.43 28.5718 13.7942 31.1352C17.5 33.9588 21.6646 34.2435 25.3145 32.0446C26.3762 31.405 26.2344 30.8238 25.9704 30.7355Z" fill="white"/>
<path fill-rule="evenodd" clip-rule="evenodd" d="M32.8624 18.4688C32.6388 18.6136 32.4361 18.9912 32.2951 19.2255C30.6255 21.9984 28.3236 24.2034 24.7241 25.0172C21.3535 25.7793 18.453 24.8339 16.4136 22.8793C15.9521 22.4369 15.7125 22.0973 15.3197 21.4931C14.9909 20.9879 14.6211 21.2316 14.6139 21.7696C14.6067 22.3178 14.6873 22.6463 14.9117 23.2981C16.3347 27.4341 21.4815 29.2701 25.5834 28.238C30.1015 27.1009 32.9203 24.0225 33.4768 19.7976C33.6388 18.569 33.0959 18.3175 32.8624 18.4688Z" fill="white"/>
<path fill-rule="evenodd" clip-rule="evenodd" d="M27.6145 15.8779C26.1086 18.9884 23.5612 20.6668 20.7618 21.0424C20.1283 21.1275 19.7131 21.1031 18.9956 21.0336C18.3956 20.9754 18.3557 21.4167 18.7721 21.7577C19.1962 22.105 19.5031 22.2469 20.1524 22.4779C24.2737 23.9441 28.9181 21.0646 30.6685 17.2142C32.5962 12.9726 31.9469 8.84962 28.9909 5.78037C28.1313 4.88757 27.5956 5.15543 27.5685 5.43244C27.5424 5.69726 27.7117 6.09117 27.8064 6.34768C28.9336 9.38175 29.2222 12.5563 27.6145 15.8779Z" fill="white"/>
<path fill-rule="evenodd" clip-rule="evenodd" d="M155.702 6.49997C156.154 6.49997 156.597 6.62048 157.028 6.84896C157.46 7.08316 157.796 7.4139 158.038 7.85156C158.279 8.28277 158.399 8.73365 158.399 9.20313C158.4 9.66652 158.279 10.1171 158.044 10.5422C157.81 10.9734 157.473 11.3038 157.047 11.5451C156.617 11.7793 156.172 11.9002 155.702 11.9002C155.233 11.9002 154.789 11.7801 154.356 11.5451C153.932 11.3034 153.595 10.9741 153.361 10.5422C153.119 10.1167 153.005 9.66688 153.005 9.20313C153.006 8.73329 153.126 8.28313 153.366 7.85156C153.608 7.41319 153.944 7.08387 154.376 6.84896C154.807 6.62012 155.252 6.49997 155.702 6.49997H155.702ZM155.702 6.9505C155.322 6.9505 154.953 7.04597 154.592 7.24227C154.236 7.4325 153.957 7.71211 153.754 8.0736C153.551 8.43545 153.45 8.80981 153.45 9.20313C153.45 9.58965 153.551 9.96509 153.748 10.3205C153.945 10.6752 154.223 10.9548 154.585 11.1515C154.942 11.3546 155.315 11.4497 155.702 11.4497C156.09 11.4497 156.464 11.3546 156.819 11.1515C157.182 10.9548 157.454 10.6756 157.657 10.3205C157.854 9.96509 157.948 9.59072 157.948 9.20313C157.948 8.80945 157.853 8.43545 157.65 8.0736C157.448 7.71175 157.168 7.43285 156.806 7.24227C156.445 7.04526 156.077 6.9505 155.702 6.9505H155.702ZM154.516 10.6945V7.7879H155.518C155.856 7.7879 156.102 7.81365 156.254 7.8705C156.406 7.92127 156.534 8.01639 156.622 8.14976C156.712 8.28277 156.756 8.42901 156.756 8.57525C156.756 8.7905 156.679 8.97501 156.534 9.13376C156.382 9.28573 156.178 9.37476 155.924 9.39371C156.033 9.43805 156.115 9.48882 156.172 9.55246C156.293 9.66653 156.432 9.8571 156.603 10.1238L156.959 10.6945H156.388L156.128 10.2376C155.925 9.87535 155.76 9.65402 155.639 9.55891C155.55 9.4949 155.423 9.46379 155.264 9.46379H154.986V10.6945H154.516ZM154.986 9.05724H155.557C155.83 9.05724 156.013 9.01934 156.115 8.9371C156.211 8.86023 156.261 8.75296 156.261 8.61315C156.261 8.53056 156.235 8.4544 156.191 8.38503C156.141 8.31495 156.077 8.26418 155.994 8.23235C155.905 8.20053 155.746 8.18193 155.518 8.18193L154.986 8.18122V9.05724Z" fill="white"/>
<path fill-rule="evenodd" clip-rule="evenodd" d="M85.0357 12.0419C83.1896 12.0419 82.3454 12.7495 82.3454 14.0542H86.3115C85.8788 15.2996 84.7103 15.9579 82.6887 15.9579C80.0013 15.9575 78.7637 14.7017 78.7637 12.3765C78.7652 10.0603 79.9215 8.79486 82.4631 8.79486C84.1811 8.79378 85.2692 9.37375 85.7891 10.4729L89.9411 10.4718C89.2063 7.85268 86.7509 6.43997 82.3454 6.43997C76.9681 6.43961 74.5052 8.5299 74.5052 12.3765C74.5063 16.2224 77.1154 18.3127 82.797 18.3127C87.8615 18.3124 90.1853 16.3994 90.1853 12.8864C90.186 12.3369 89.8324 12.0429 89.0669 12.0429L85.0357 12.0419Z" fill="white"/>
<path fill-rule="evenodd" clip-rule="evenodd" d="M113.56 15.7369H119.084V17.1303C119.084 17.6799 118.73 17.9742 117.964 17.9742L112.52 17.9735C108.418 17.9735 106.543 16.3945 106.543 13.4897L106.544 6.77789H108.535C110.171 6.77789 110.541 7.40326 110.576 8.50169L110.578 13.4897C110.578 14.941 111.508 15.7369 113.559 15.7369H113.56Z" fill="white"/>
<path fill-rule="evenodd" clip-rule="evenodd" d="M41.2922 6.66522C43.765 6.66522 45.2446 7.36211 45.8629 8.67721L48.6021 14.5548L52.2803 6.66522H55.1372C57.1289 6.66522 58.0396 7.43076 58.0396 8.84384L58.0406 17.0177C58.0406 17.5672 57.6866 17.8615 56.9211 17.8615L54.0066 17.8608V8.78448L50.6134 16.0651C50.0041 17.3809 48.512 18.0871 46.0395 18.0871H45.8049L41.4663 8.78448V17.1839C41.4663 17.6259 41.182 17.8615 40.5734 17.8615L39.0048 17.8608V6.66522H41.2922Z" fill="white"/>
<path fill-rule="evenodd" clip-rule="evenodd" d="M101.646 6.77789C103.698 6.77789 104.64 7.56308 104.64 9.01549H95.8977V11.0268H103.071C103.835 11.0268 104.188 11.3214 104.188 11.8706V13.273H95.8977V14.6077C95.8977 15.3343 96.3671 15.7369 97.3976 15.7369H105.308V17.1303C105.308 17.6799 104.953 17.9742 104.188 17.9742L96.3482 17.9735C93.2771 17.9735 91.8633 16.7871 91.8633 14.6085L91.864 6.77789H101.646Z" fill="white"/>
<path fill-rule="evenodd" clip-rule="evenodd" d="M148.541 6.77789H150.11C150.719 6.77789 151.003 7.01388 151.003 7.44545L151.005 17.9735H147.923C146.068 17.9735 144.861 17.5133 144.242 16.6301L138.906 9.00549V17.2966C138.906 17.7385 138.629 17.9742 138.011 17.9742L136.442 17.9735V6.77789H138.61C141.083 6.77789 142.692 7.39647 143.516 8.56426L148.541 15.7369V6.77789Z" fill="white"/>
<path fill-rule="evenodd" clip-rule="evenodd" d="M131.106 17.9735L130.065 15.7287L125.033 15.724L125.456 14.8427C125.745 14.2341 126.425 13.7714 127.307 13.7843L129.148 13.7825L126.936 9.04981L123.147 17.1536C122.807 17.8565 122.037 17.9742 121.36 17.9742L119.643 17.9735L124.864 6.77789C127.412 6.81222 130.277 6.55726 131.271 8.78987L134.64 16.0176C134.98 16.6587 135.208 17.9745 133.386 17.9742L131.106 17.9735Z" fill="white"/>
<path fill-rule="evenodd" clip-rule="evenodd" d="M70.631 17.9735L69.5902 15.7287L64.5586 15.724L64.9816 14.8427C65.2701 14.2341 65.951 13.7714 66.8327 13.7843L68.6738 13.7825L66.4616 9.04981L62.6721 17.1536C62.3324 17.8565 61.5623 17.9742 60.8854 17.9742L59.168 17.9735L64.3895 6.77789C66.9378 6.81222 69.8022 6.55726 70.7962 8.78987L74.1659 16.0176C74.5056 16.6587 74.7333 17.9745 72.9116 17.9742L70.631 17.9735Z" fill="white"/>
<g opacity="0.5">
<path d="M146.55 29.5L148.954 25.958H149.046L150.866 23.1016H151.845L149.56 26.5557H149.464L147.53 29.5H146.55ZM146.664 23.1016H147.688L149.512 25.958H149.56L151.964 29.5H150.936L148.998 26.5557H148.954L146.664 23.1016Z" fill="white"/>
<path d="M139.3 29.5L141.814 23.062H142.658L145.176 29.5H144.235L142.434 24.7188C142.393 24.6133 142.356 24.5122 142.324 24.4155C142.294 24.3159 142.268 24.2148 142.245 24.1123H142.196C142.173 24.2148 142.145 24.3159 142.113 24.4155C142.084 24.5122 142.048 24.6133 142.007 24.7188L140.188 29.5H139.3ZM140.377 27.8608L140.658 27.1182L143.796 27.127L144.073 27.8696L140.377 27.8608Z" fill="white"/>
<path d="M133.277 29.5V23.1016H135.513C136.255 23.1016 136.823 23.2803 137.219 23.6377C137.617 23.9922 137.816 24.4668 137.816 25.0615C137.816 25.6533 137.617 26.1309 137.219 26.4941C136.823 26.8574 136.255 27.0391 135.513 27.0391H134.169V29.5H133.277ZM134.169 26.2964H135.513C136.038 26.2964 136.404 26.1763 136.612 25.936C136.823 25.6958 136.929 25.4043 136.929 25.0615C136.929 24.7158 136.823 24.4272 136.612 24.1958C136.404 23.9614 136.038 23.8442 135.513 23.8442H134.169V26.2964Z" fill="white"/>
<path d="M126.699 29.5V23.1016H130.922V23.8442H127.591V25.8262H130.509V26.5732H127.591V28.7573H130.971V29.5H126.699Z" fill="white"/>
<path d="M123.734 30.7744V29.5H118.782V30.7744H117.96V28.7529H124.556V30.7744H123.734ZM119.331 23.1016H123.73V29.5H122.838V23.8486H120.082L119.959 26.6128C119.927 27.3306 119.864 27.8506 119.77 28.1729C119.677 28.4922 119.555 28.7368 119.406 28.9067H118.474C118.673 28.7251 118.824 28.4731 118.927 28.1509C119.032 27.8257 119.104 27.3101 119.142 26.604L119.331 23.1016Z" fill="white"/>
<path d="M110.706 29.5V23.1016H111.598V25.8262H114.982V23.1016H115.874V29.5H114.982V26.5732H111.598V29.5H110.706Z" fill="white"/>
<path d="M104.128 29.5V23.1016H108.351V23.8442H105.02V25.8262H107.938V26.5732H105.02V28.7573H108.4V29.5H104.128Z" fill="white"/>
<path d="M96.8126 23.8442V23.1016H102.011V23.8442H99.8536V29.5H98.9659V23.8442H96.8126Z" fill="white"/>
<path d="M86.9625 29.5V23.1016H89.1906C89.8702 23.1016 90.4049 23.2378 90.7946 23.5103C91.1842 23.7827 91.379 24.2119 91.379 24.7979C91.379 25.1494 91.2867 25.4351 91.1022 25.6548C90.9176 25.8745 90.6891 26.0312 90.4166 26.125V26.1426C90.7506 26.2363 91.0231 26.4092 91.234 26.6611C91.4449 26.9131 91.5504 27.2441 91.5504 27.6543C91.5504 28.2402 91.3468 28.6943 90.9396 29.0166C90.5353 29.3389 89.9977 29.5 89.3268 29.5H86.9625ZM87.837 28.7661H89.3224C89.7882 28.7661 90.1295 28.665 90.3463 28.4629C90.5631 28.2607 90.6715 27.9883 90.6715 27.6455C90.6715 27.3027 90.5631 27.0317 90.3463 26.8325C90.1295 26.6304 89.7897 26.5293 89.3268 26.5293H87.837V28.7661ZM87.837 25.8086H89.1906C89.6534 25.8086 89.986 25.7207 90.1881 25.5449C90.3932 25.3691 90.4957 25.123 90.4957 24.8066C90.4957 24.4961 90.3932 24.2573 90.1881 24.0903C89.986 23.9204 89.6534 23.8354 89.1906 23.8354H87.837V25.8086Z" fill="white"/>
<path d="M75.6183 29.5L78.132 23.062H78.9757L81.4938 29.5H80.5533L78.7516 24.7188C78.7106 24.6133 78.674 24.5122 78.6417 24.4155C78.6124 24.3159 78.5861 24.2148 78.5626 24.1123H78.5143C78.4908 24.2148 78.463 24.3159 78.4308 24.4155C78.4015 24.5122 78.3663 24.6133 78.3253 24.7188L76.506 29.5H75.6183ZM76.6949 27.8608L76.9762 27.1182L80.1139 27.127L80.3907 27.8696L76.6949 27.8608Z" fill="white"/>
<path d="M73.4003 30.7744V29.5H68.4477V30.7744H67.6259V28.7529H74.2221V30.7744H73.4003ZM68.997 23.1016H73.3959V29.5H72.5038V23.8486H69.7484L69.6254 26.6128C69.5932 27.3306 69.5302 27.8506 69.4364 28.1729C69.3427 28.4922 69.2211 28.7368 69.0717 28.9067H68.14C68.3393 28.7251 68.4901 28.4731 68.5927 28.1509C68.6982 27.8257 68.7699 27.3101 68.808 26.604L68.997 23.1016Z" fill="white"/>
<path d="M61.7165 29.5V23.1016H65.9396V23.8442H62.6086V25.8262H65.5265V26.5732H62.6086V28.7573H65.9879V29.5H61.7165Z" fill="white"/>
<path d="M54.7963 29.5V23.1016H58.8788V23.8442H55.6884V25.6372H57.0331C57.7743 25.6372 58.3427 25.8145 58.7382 26.1689C59.1366 26.5205 59.3358 26.9893 59.3358 27.5752C59.3358 28.1553 59.1366 28.6211 58.7382 28.9727C58.3427 29.3242 57.7743 29.5 57.0331 29.5H54.7963ZM55.6884 26.3799V28.7573H57.0331C57.5575 28.7573 57.9237 28.6445 58.1317 28.4189C58.3427 28.1904 58.4482 27.9092 58.4482 27.5752C58.4482 27.2383 58.3427 26.9556 58.1317 26.7271C57.9237 26.4956 57.5575 26.3799 57.0331 26.3799H55.6884Z" fill="white"/>
<path d="M46.5974 26.4854V26.1162C46.5974 25.126 46.8625 24.354 47.3928 23.8003C47.926 23.2466 48.6071 22.9697 49.4362 22.9697C50.2682 22.9697 50.9494 23.2466 51.4797 23.8003C52.0129 24.354 52.2795 25.126 52.2795 26.1162V26.4854C52.2795 27.4756 52.0129 28.2476 51.4797 28.8013C50.9494 29.355 50.2682 29.6318 49.4362 29.6318C48.6071 29.6318 47.926 29.355 47.3928 28.8013C46.8625 28.2476 46.5974 27.4756 46.5974 26.4854ZM47.4982 26.4854C47.4982 27.2236 47.6755 27.8037 48.03 28.2256C48.3845 28.6475 48.8547 28.8584 49.4406 28.8584C50.0236 28.8584 50.4924 28.6475 50.8469 28.2256C51.2014 27.8037 51.3786 27.2236 51.3786 26.4854V26.1162C51.3786 25.3779 51.2014 24.7979 50.8469 24.376C50.4924 23.9541 50.0236 23.7432 49.4406 23.7432C48.8547 23.7432 48.3845 23.9541 48.03 24.376C47.6755 24.7979 47.4982 25.3779 47.4982 26.1162V26.4854Z" fill="white"/>
<path d="M39.0048 29.5V23.1016H44.0849V29.5H43.1928V23.8486H39.8969V29.5H39.0048Z" fill="white"/>
</g>
</svg>
