<svg width="10" height="17" viewBox="0 0 10 17" fill="none" xmlns="http://www.w3.org/2000/svg">
<path fill-rule="evenodd" clip-rule="evenodd" d="M2.222 8.897C4.522 6.59 6.77 4.338 8.966 2.143C9.08095 2.02216 9.14505 1.86177 9.14505 1.695C9.14505 1.52822 9.08095 1.36783 8.966 1.247C8.655 0.900997 8.163 0.930997 7.939 1.167C5.663 3.449 3.282 5.834 0.796 8.323C0.599 8.485 0.5 8.677 0.5 8.897C0.5 9.118 0.599 9.315 0.796 9.489L8.279 16.795C8.42254 16.927 8.61193 16.9979 8.80689 16.9925C9.00185 16.9871 9.18701 16.9058 9.323 16.766C9.681 16.407 9.543 16.053 9.381 15.885C6.99091 13.5592 4.60525 11.2298 2.222 8.897Z" fill="#002748"/>
</svg>
