<svg width="10" height="6" viewBox="0 0 10 6" fill="none" xmlns="http://www.w3.org/2000/svg">
<path fill-rule="evenodd" clip-rule="evenodd" d="M5.53026 5.78025C5.38962 5.92085 5.19889 5.99984 5.00001 5.99984C4.80114 5.99984 4.61041 5.92085 4.46976 5.78025L0.227013 1.5375C0.155381 1.46831 0.0982438 1.38555 0.058937 1.29405C0.0196303 1.20255 -0.00105945 1.10413 -0.00192481 1.00455C-0.00279017 0.904964 0.0161863 0.806205 0.053897 0.714033C0.0916076 0.62186 0.147297 0.538121 0.217717 0.467701C0.288137 0.397282 0.371875 0.341592 0.464047 0.303881C0.55622 0.266171 0.654979 0.247195 0.754564 0.24806C0.854148 0.248925 0.952563 0.269615 1.04407 0.308922C1.13557 0.348229 1.21833 0.405365 1.28751 0.476998L5.00001 4.1895L8.71251 0.476998C8.85396 0.340379 9.04342 0.264783 9.24006 0.266492C9.43671 0.268201 9.62482 0.347077 9.76388 0.486134C9.90293 0.62519 9.98181 0.813299 9.98352 1.00995C9.98523 1.20659 9.90963 1.39605 9.77301 1.5375L5.53026 5.78025Z" fill="#008AFF"/>
</svg>
