<svg width="10" height="17" viewBox="0 0 10 17" fill="none" xmlns="http://www.w3.org/2000/svg">
<path fill-rule="evenodd" clip-rule="evenodd" d="M7.778 8.897C5.478 6.59 3.23 4.338 1.034 2.143C0.919055 2.02216 0.854952 1.86177 0.854952 1.695C0.854952 1.52822 0.919055 1.36783 1.034 1.247C1.345 0.900997 1.837 0.930997 2.061 1.167C4.337 3.449 6.718 5.834 9.204 8.323C9.401 8.485 9.5 8.677 9.5 8.897C9.5 9.118 9.401 9.315 9.204 9.489L1.721 16.795C1.57746 16.927 1.38807 16.9979 1.19311 16.9925C0.998149 16.9871 0.812988 16.9058 0.677 16.766C0.319 16.407 0.457001 16.053 0.619 15.885C3.00909 13.5592 5.39475 11.2298 7.778 8.897Z" fill="#002748"/>
</svg>
